<svg width="25" height="25" viewBox="0 0 25 25" fill="none" xmlns="http://www.w3.org/2000/svg">
<rect width="25" height="25" rx="2" fill="#4DA1FF" fill-opacity="0.1"/>
<path d="M8.14209 9.4541L6.23047 15H5.07471L7.48291 8.60156H8.22119L8.14209 9.4541ZM9.7417 15L7.82568 9.4541L7.74219 8.60156H8.48486L10.9019 15H9.7417ZM9.64941 12.627V13.5015H6.16895V12.627H9.64941ZM11.8317 8.60156H12.8161L14.6662 13.5366L16.5119 8.60156H17.4963L15.0529 15H14.2707L11.8317 8.60156ZM11.3835 8.60156H12.3195L12.4821 12.873V15H11.3835V8.60156ZM17.0085 8.60156H17.9489V15H16.8459V12.873L17.0085 8.60156Z" fill="#4DA1FF"/>
</svg>
