<svg width="25" height="25" viewBox="0 0 25 25" fill="none" xmlns="http://www.w3.org/2000/svg">
<rect width="25" height="25" rx="2" fill="#FFD012" fill-opacity="0.1"/>
<path d="M11.8384 14.1255V15H8.44141V14.1255H11.8384ZM8.75342 8.60156V15H7.65039V8.60156H8.75342ZM11.3945 11.2734V12.1348H8.44141V11.2734H11.3945ZM11.8164 8.60156V9.48047H8.44141V8.60156H11.8164ZM15.8708 13.3521C15.8708 13.2202 15.8503 13.103 15.8093 13.0005C15.7712 12.8979 15.7023 12.8042 15.6027 12.7192C15.5031 12.6343 15.3625 12.5522 15.1808 12.4731C15.0021 12.3911 14.7736 12.3076 14.4953 12.2227C14.1906 12.1289 13.9094 12.0249 13.6515 11.9106C13.3967 11.7935 13.174 11.6587 12.9836 11.5063C12.7931 11.3511 12.6452 11.1738 12.5397 10.9746C12.4343 10.7725 12.3815 10.5396 12.3815 10.2759C12.3815 10.0151 12.4357 9.77783 12.5441 9.56396C12.6554 9.3501 12.8122 9.16553 13.0143 9.01025C13.2194 8.85205 13.4611 8.73047 13.7394 8.64551C14.0178 8.55762 14.3254 8.51367 14.6623 8.51367C15.1369 8.51367 15.5456 8.60156 15.8884 8.77734C16.2341 8.95312 16.4992 9.18896 16.6838 9.48486C16.8713 9.78076 16.965 10.1074 16.965 10.4648H15.8708C15.8708 10.2539 15.8254 10.0679 15.7345 9.90674C15.6467 9.74268 15.5119 9.61377 15.3303 9.52002C15.1515 9.42627 14.9245 9.37939 14.6491 9.37939C14.3884 9.37939 14.1716 9.41895 13.9987 9.49805C13.8259 9.57715 13.697 9.68408 13.612 9.81885C13.527 9.95361 13.4845 10.106 13.4845 10.2759C13.4845 10.396 13.5124 10.5059 13.568 10.6055C13.6237 10.7021 13.7087 10.793 13.8229 10.8779C13.9372 10.96 14.0807 11.0376 14.2536 11.1108C14.4264 11.1841 14.6301 11.2544 14.8644 11.3218C15.2189 11.4272 15.528 11.5444 15.7917 11.6733C16.0553 11.7993 16.2751 11.9429 16.4509 12.104C16.6266 12.2651 16.7585 12.4482 16.8464 12.6533C16.9343 12.8555 16.9782 13.0854 16.9782 13.3433C16.9782 13.6128 16.924 13.856 16.8156 14.0728C16.7072 14.2866 16.5519 14.4697 16.3498 14.6221C16.1506 14.7715 15.9103 14.8872 15.6291 14.9692C15.3508 15.0483 15.0402 15.0879 14.6974 15.0879C14.3898 15.0879 14.0866 15.0469 13.7878 14.9648C13.4919 14.8828 13.2223 14.7583 12.9792 14.5913C12.736 14.4214 12.5427 14.2104 12.3991 13.9585C12.2555 13.7036 12.1838 13.4062 12.1838 13.0664H13.2868C13.2868 13.2744 13.322 13.4517 13.3923 13.5981C13.4655 13.7446 13.5666 13.8647 13.6955 13.9585C13.8244 14.0493 13.9738 14.1167 14.1437 14.1606C14.3166 14.2046 14.5012 14.2266 14.6974 14.2266C14.9553 14.2266 15.1706 14.1899 15.3434 14.1167C15.5192 14.0435 15.6511 13.9409 15.7389 13.8091C15.8268 13.6772 15.8708 13.5249 15.8708 13.3521Z" fill="#FFD012"/>
</svg>
