<svg width="23" height="26" viewBox="0 0 23 26" fill="none" xmlns="http://www.w3.org/2000/svg">
<rect x="0.296875" y="3.62842" width="21.7681" height="22.1819" rx="2" fill="#7C4DC4" fill-opacity="0.1"/>
<path d="M8.14551 0.393555V6.79199H7.04248V0.393555H8.14551ZM10.7559 3.19287V4.06738H7.86426V3.19287H10.7559ZM11.1206 0.393555V1.27246H7.86426V0.393555H11.1206ZM10.4087 15.144C10.4087 15.0122 10.3882 14.895 10.3472 14.7925C10.3091 14.6899 10.2402 14.5962 10.1406 14.5112C10.041 14.4263 9.90039 14.3442 9.71875 14.2651C9.54004 14.1831 9.31152 14.0996 9.0332 14.0146C8.72852 13.9209 8.44727 13.8169 8.18945 13.7026C7.93457 13.5854 7.71191 13.4507 7.52148 13.2983C7.33105 13.1431 7.18311 12.9658 7.07764 12.7666C6.97217 12.5645 6.91943 12.3315 6.91943 12.0679C6.91943 11.8071 6.97363 11.5698 7.08203 11.356C7.19336 11.1421 7.3501 10.9575 7.55225 10.8022C7.75732 10.644 7.99902 10.5225 8.27734 10.4375C8.55566 10.3496 8.86328 10.3057 9.2002 10.3057C9.6748 10.3057 10.0835 10.3936 10.4263 10.5693C10.772 10.7451 11.0371 10.981 11.2217 11.2769C11.4092 11.5728 11.5029 11.8994 11.5029 12.2568H10.4087C10.4087 12.0459 10.3633 11.8599 10.2725 11.6987C10.1846 11.5347 10.0498 11.4058 9.86816 11.312C9.68945 11.2183 9.4624 11.1714 9.18701 11.1714C8.92627 11.1714 8.70947 11.2109 8.53662 11.29C8.36377 11.3691 8.23486 11.4761 8.1499 11.6108C8.06494 11.7456 8.02246 11.8979 8.02246 12.0679C8.02246 12.188 8.05029 12.2979 8.10596 12.3975C8.16162 12.4941 8.24658 12.585 8.36084 12.6699C8.4751 12.752 8.61865 12.8296 8.7915 12.9028C8.96436 12.9761 9.16797 13.0464 9.40234 13.1138C9.75684 13.2192 10.0659 13.3364 10.3296 13.4653C10.5933 13.5913 10.813 13.7349 10.9888 13.896C11.1646 14.0571 11.2964 14.2402 11.3843 14.4453C11.4722 14.6475 11.5161 14.8774 11.5161 15.1353C11.5161 15.4048 11.4619 15.6479 11.3535 15.8647C11.2451 16.0786 11.0898 16.2617 10.8877 16.4141C10.6885 16.5635 10.4482 16.6792 10.167 16.7612C9.88867 16.8403 9.57812 16.8799 9.23535 16.8799C8.92773 16.8799 8.62451 16.8389 8.32568 16.7568C8.02979 16.6748 7.76025 16.5503 7.51709 16.3833C7.27393 16.2134 7.08057 16.0024 6.93701 15.7505C6.79346 15.4956 6.72168 15.1982 6.72168 14.8584H7.82471C7.82471 15.0664 7.85986 15.2437 7.93018 15.3901C8.00342 15.5366 8.10449 15.6567 8.2334 15.7505C8.3623 15.8413 8.51172 15.9087 8.68164 15.9526C8.85449 15.9966 9.03906 16.0186 9.23535 16.0186C9.49316 16.0186 9.7085 15.9819 9.88135 15.9087C10.0571 15.8354 10.189 15.7329 10.2769 15.6011C10.3647 15.4692 10.4087 15.3169 10.4087 15.144Z" fill="#7C4DC4"/>
</svg>
