<svg width="26" height="20" viewBox="0 0 26 20" fill="none" xmlns="http://www.w3.org/2000/svg">
<path d="M1.68132 11.25H20.298L12.1646 17.35C11.5146 17.8375 11.5146 18.6375 12.1646 19.125C12.8146 19.6125 13.8646 19.6125 14.5146 19.125L25.498 10.8875C26.148 10.4 26.148 9.61249 25.498 9.12499L14.5313 0.874991C14.2199 0.640925 13.7972 0.509384 13.3563 0.509384C12.9155 0.509384 12.4927 0.640925 12.1813 0.874991C11.5313 1.36249 11.5313 2.14999 12.1813 2.63749L20.298 8.74999H1.68132C0.764648 8.74999 0.0146484 9.31249 0.0146484 9.99999C0.0146484 10.6875 0.764648 11.25 1.68132 11.25Z" fill="#4DA0FD"/>
</svg>
