<svg width="26" height="26" viewBox="0 0 26 26" fill="none" xmlns="http://www.w3.org/2000/svg">
<rect x="1" y="1" width="24" height="24" rx="2" fill="white" stroke="#4DA1FF" stroke-opacity="0.7"/>
<path fill-rule="evenodd" clip-rule="evenodd" d="M8.69478 12.6007L16.0767 15.7437L16.9136 8.73244L8.69478 12.6007ZM16.251 16.2316C16.222 16.2316 16.1931 16.2257 16.1662 16.2145L8.12288 12.7899C8.04963 12.7587 8.00169 12.6898 8.00003 12.6134C7.99858 12.5369 8.04361 12.4664 8.11562 12.4325L17.0709 8.218C17.1388 8.18601 17.2199 8.19173 17.2822 8.2334C17.3444 8.27487 17.3776 8.34537 17.3691 8.41726L16.4571 16.0565C16.4496 16.1189 16.4112 16.1746 16.3538 16.2056C16.322 16.223 16.2865 16.2316 16.251 16.2316Z" fill="#4DA1FF"/>
<path d="M8.69478 12.6007L8.6309 12.465L8.32797 12.6076L8.63602 12.7387L8.69478 12.6007ZM16.0767 15.7437L16.018 15.8817L16.202 15.96L16.2257 15.7614L16.0767 15.7437ZM16.9136 8.73244L17.0626 8.75022L17.0946 8.48146L16.8497 8.59672L16.9136 8.73244ZM16.1662 16.2145L16.1074 16.3525L16.1084 16.3529L16.1662 16.2145ZM8.12288 12.7899L8.0641 12.9279L8.06412 12.9279L8.12288 12.7899ZM8.00003 12.6134L7.85006 12.6162L7.85007 12.6166L8.00003 12.6134ZM8.11562 12.4325L8.05174 12.2968L8.05162 12.2968L8.11562 12.4325ZM17.0709 8.218L17.1348 8.35372L17.1349 8.35367L17.0709 8.218ZM17.2822 8.2334L17.1987 8.35806L17.199 8.35824L17.2822 8.2334ZM17.3691 8.41726L17.518 8.43504L17.5181 8.43489L17.3691 8.41726ZM16.4571 16.0565L16.606 16.0743L16.606 16.0743L16.4571 16.0565ZM16.3538 16.2056L16.2825 16.0736L16.2817 16.074L16.3538 16.2056ZM8.63602 12.7387L16.018 15.8817L16.1355 15.6057L8.75354 12.4627L8.63602 12.7387ZM16.2257 15.7614L17.0626 8.75022L16.7647 8.71466L15.9278 15.7259L16.2257 15.7614ZM16.8497 8.59672L8.6309 12.465L8.75865 12.7364L16.9775 8.86816L16.8497 8.59672ZM16.251 16.0816C16.2424 16.0816 16.2331 16.0799 16.2239 16.076L16.1084 16.3529C16.1532 16.3716 16.2016 16.3816 16.251 16.3816V16.0816ZM16.2249 16.0765L8.18164 12.6519L8.06412 12.9279L16.1074 16.3525L16.2249 16.0765ZM8.18166 12.6519C8.15978 12.6426 8.15031 12.6246 8.15 12.6101L7.85007 12.6166C7.85308 12.755 7.93948 12.8748 8.0641 12.9279L8.18166 12.6519ZM8.15001 12.6105C8.14974 12.5962 8.15821 12.5782 8.17961 12.5681L8.05162 12.2968C7.92901 12.3547 7.84743 12.4777 7.85006 12.6162L8.15001 12.6105ZM8.17949 12.5682L17.1348 8.35372L17.007 8.08228L8.05174 12.2968L8.17949 12.5682ZM17.1349 8.35367C17.1556 8.34391 17.1807 8.34601 17.1987 8.35806L17.3656 8.10875C17.2591 8.03745 17.1219 8.0281 17.0069 8.08232L17.1349 8.35367ZM17.199 8.35824C17.2159 8.36953 17.2218 8.38583 17.2201 8.39963L17.5181 8.43489C17.5334 8.30492 17.4729 8.18022 17.3653 8.10857L17.199 8.35824ZM17.2202 8.39948L16.3082 16.0387L16.606 16.0743L17.518 8.43504L17.2202 8.39948ZM16.3082 16.0387C16.3067 16.0509 16.2986 16.0649 16.2825 16.0736L16.425 16.3376C16.5238 16.2843 16.5926 16.1869 16.606 16.0743L16.3082 16.0387ZM16.2817 16.074C16.2728 16.0789 16.2622 16.0816 16.251 16.0816V16.3816C16.3109 16.3816 16.3712 16.367 16.4258 16.3372L16.2817 16.074Z" fill="#4DA1FF"/>
<path fill-rule="evenodd" clip-rule="evenodd" d="M11.9014 17.4652C11.8825 17.4652 11.8634 17.4627 11.8445 17.4577C11.7547 17.4332 11.6932 17.3548 11.6939 17.2662L11.7198 14.1065C11.7202 14.0593 11.7385 14.0138 11.771 13.9783L17.0032 8.2659C17.0787 8.18375 17.2099 8.17526 17.2962 8.24675C17.3825 8.31863 17.3915 8.44324 17.3161 8.52539L12.1344 14.1827L12.1147 16.5558L13.2581 14.7724C13.318 14.6792 13.4457 14.6497 13.5434 14.7066C13.6411 14.7633 13.672 14.8851 13.6123 14.9779L12.0786 17.3706C12.0402 17.4305 11.9723 17.4652 11.9014 17.4652Z" fill="#4DA1FF"/>
<path d="M11.9014 17.4652C11.8825 17.4652 11.8634 17.4627 11.8445 17.4577C11.7547 17.4332 11.6932 17.3548 11.6939 17.2662L11.7198 14.1065C11.7202 14.0593 11.7385 14.0138 11.771 13.9783L17.0032 8.2659C17.0787 8.18375 17.2099 8.17526 17.2962 8.24675C17.3825 8.31863 17.3915 8.44324 17.3161 8.52539L12.1344 14.1827L12.1147 16.5558L13.2581 14.7724C13.318 14.6792 13.4457 14.6497 13.5434 14.7066C13.6411 14.7633 13.672 14.8851 13.6123 14.9779L12.0786 17.3706C12.0402 17.4305 11.9723 17.4652 11.9014 17.4652" stroke="#4DA1FF" stroke-width="0.3"/>
</svg>
